# xmcd
#
# Track frame offsets:
#	150
#	24135
#	43785
#	85412
#	112635
#	161355
#	182985
#	217610
#	243660
#	284590
#
# Disc length: 4176 seconds
# Revision: 5
# Processed by: cddbd v1.5.2PL0 Copyright (c) Steve Scherf et al.
# Submitted via: dBpowerAMP V12.0
#
DISCID=7b104e0a
DTITLE=Luther Allison - Live In Paris [RUF/Platinum 51416 1354]
DYEAR=1995
DGENRE=Blues
TTITLE0=Crazy Jealous
TTITLE1=My Babe
TTITLE2=Thrill Is Gone
TTITLE3=Early In The Morning
TTITLE4=Tribute To Hound Dog
TTITLE5=Luther's Shuffle
TTITLE6=I Can't Quit You Babe
TTITLE7=I'm Leavin'
TTITLE8=Rock Me Baby
TTITLE9=Little Red Rooster
EXTD=
EXTT0=
EXTT1=
EXTT2=
EXTT3=
EXTT4=
EXTT5=
EXTT6=
EXTT7=
EXTT8=
EXTT9=
PLAYORDER=
